<svg width="800" height="600" xmlns="http://www.w3.org/2000/svg">
 <g>
  <title>Layer 1</title>
  <path d="m547.20001,171c2,1 4.47729,2.47733 10,8c5.52271,5.52267 9.76141,11.14183 14,18c5.68665,9.2012 9.56506,17.83098 12,27c2.61749,9.8564 2.37671,16.07507 1,22c-2.36292,10.1694 -5.67456,17.55786 -16,25c-12.69794,9.15216 -35.81171,15.9827 -49,18c-12.88849,1.97144 -24.97119,3.49963 -38,4c-2.9978,0.11514 -4,0 -4,0c0,0 -1,-1 -1,-1c-1,0 -1.69345,-0.4588 -3,-1c-1.84775,-0.76538 -4,0 -6,0c-1,0 -1,0 -2,0c0,0 -1,0 -1,0c0,0 -1,0 -3,0c-4,0 -9,0 -12,0c0,0 -2,0 -4,0c0,0 0,0 -1,0c-1,0 -1,0 -2,0c-5,0 -10,0 -16,0c-1,0 -2,0 -4,0l0,0l-1,0l0,0" id="svg_20" stroke-width="5" stroke="#000" fill="none"/>
  <path d="m433.20001,309c0,0 -0.93414,-0.14429 -3,-1c-2.92157,-1.21014 -7.86829,-3.28857 -12,-5c-2.92157,-1.21014 -5.83771,-1.83771 -9,-5c-1.58115,-1.58115 -4,-3 -5,-4c0,0 -1,-1 -2,-2c0,0 -1,-1 -1,-1c0,0 2.52072,-2.60922 10,-8c4.73032,-3.40942 8.3764,-4.08032 10,-8c0.38269,-0.92389 1,-1 1,-1c1,-1 1,-1 2,-3c0,0 0,0 1,-1l0,0l0,0" id="svg_21" stroke-width="5" stroke="#000" fill="none"/>
  <path d="m413.20001,282c0,0 -0.38269,-0.07611 0,-1c0.5412,-1.30655 1.69345,-2.4588 3,-3c0.92389,-0.38269 1.21167,-1.71411 4,-4c1.09366,-0.89661 3.41885,-3.41885 5,-5c1.58115,-1.58115 2.69254,-3.186 4,-5c2.48071,-3.4418 3.70547,-4.34619 6,-6c1.814,-1.30746 3,-4 3,-4c1,0 2,-1 2,-1l0,0" id="svg_22" stroke-width="5" stroke="#000" fill="none"/>
  <path d="m424.20001,306c0,0 1,0 1,0c1,0 1.07611,0.61731 2,1c1.30655,0.5412 1.69345,2.4588 3,3c1.84775,0.76538 1.85272,0.1731 3,1c1.814,1.30746 3,2 4,3c0,0 2.82443,-0.9021 4,1c0.52573,0.85065 0.69345,2.4588 2,3c0.92389,0.38269 2,0 2,0c1,0 1,0 1,0c1,0 1,0 1,1c0,0 0,0 0,0c0,0 1,0 1,0l0,0" id="svg_25" stroke-width="5" stroke="#000" fill="none"/>
 </g>

</svg>